<?xml version="1.0" encoding="UTF-8"?>
<svg width="500px" height="500px" viewBox="0 0 500 500" version="1.1" xmlns="http://www.w3.org/2000/svg" xmlns:xlink="http://www.w3.org/1999/xlink">
    <!-- Generator: Sketch 41.2 (35397) - http://www.bohemiancoding.com/sketch -->
    <title>marker</title>
    <desc>Created with Sketch.</desc>
    <defs></defs>
    <g id="Symbols" stroke="none" stroke-width="1" fill="none" fill-rule="evenodd">
        <g id="marker">
            <g id="Group-2" transform="translate(93.000000, 80.000000)">
                <ellipse id="Oval-Copy-2" fill="#CCCCCC" cx="156" cy="390.697674" rx="78" ry="29.3023256"></ellipse>
                <path d="M136.5,234.418605 L175.5,234.418605 L169,390.697674 C169,390.697674 162.960539,400.465116 156.307868,400.465116 C149.655196,400.465116 143,390.697674 143,390.697674 L136.5,234.418605 Z" id="Rectangle-2-Copy" fill="#999999"></path>
                <path d="M308.664074,194.643845 L243.506046,156.27907 L308.664074,117.914295 C311.898298,116.014636 312.964679,111.840248 311.045894,108.645209 L272.305368,44.1505736 C270.386583,40.9555349 266.170166,39.8928372 262.942958,41.7924961 L200.731511,78.4277829 L200.731511,6.75820155 C200.731511,3.03875969 197.65514,0 193.901757,0 L118.100959,0 C114.347576,0 111.271205,3.03875969 111.271205,6.75820155 L111.271205,78.4208372 L49.0597582,41.7924961 C45.8290425,39.8928372 41.6161332,40.9555349 39.7078712,44.1505736 L0.95682222,108.648682 C-0.961963312,111.843721 0.104418409,116.018109 3.33864192,117.917767 L68.493162,156.27907 L3.33513408,194.643845 C0.104418409,196.543504 -0.965471146,200.721364 0.953314385,203.916403 L39.7043633,268.414512 C41.6126253,271.602605 45.8255347,272.668775 49.0562504,270.769116 L111.267697,234.133829 L111.267697,305.796465 C111.267697,309.512434 114.344068,312.55814 118.097451,312.55814 L193.894741,312.55814 C197.648124,312.55814 200.724495,309.512434 200.724495,305.796465 L200.724495,234.133829 L262.935942,270.762171 C266.16315,272.661829 270.379567,271.602605 272.298353,268.407566 L311.045894,203.909457 C312.964679,200.721364 311.898298,196.543504 308.664074,194.643845 Z" id="Shape" fill="#52585E"></path>
            </g>
        </g>
    </g>
</svg>