<?xml version="1.0" encoding="utf-8"?>
<!-- Generator: Adobe Illustrator 19.1.0, SVG Export Plug-In . SVG Version: 6.00 Build 0)  -->
<svg version="1.1" id="Layer_1" xmlns="http://www.w3.org/2000/svg" xmlns:xlink="http://www.w3.org/1999/xlink" x="0px" y="0px"
	 viewBox="0 0 350 72.362" enable-background="new 0 0 350 72.362" xml:space="preserve">
<g>
	<g>
		<path fill="#FFFFFF" stroke="#FFFFFF" stroke-width="1.3297" stroke-miterlimit="10" d="M1,3.346v16.618h0.002
			c0.002,6.785,1.082,15.315,3.45,21.731c3.432,9.177,10.124,19.764,23.215,27.322C40.76,61.458,47.45,50.871,50.882,41.694
			c2.387-6.415,3.448-14.945,3.45-21.731l0,0V3.346H1z"/>
		<path fill="#003E7E" d="M4.452,41.694c3.432,9.177,10.124,19.764,23.215,27.322C40.76,61.458,47.45,50.871,50.882,41.694
			c2.391-6.42,3.452-14.963,3.452-21.748L27.667,9.862L1,19.947C1,26.731,2.08,35.275,4.452,41.694z"/>
		<path fill="#FFFFFF" d="M5.204,41.617C8.522,50.503,15,60.763,27.667,68.071c12.668-7.308,19.147-17.568,22.465-26.455
			c2.314-6.207,3.353-14.48,3.353-21.034l0.019-10.604l-25.837,0.83L1.849,10.461v10.121C1.849,27.136,2.891,35.41,5.204,41.617z"/>
		<rect x="1" y="3.346" fill-rule="evenodd" clip-rule="evenodd" fill="#003E7E" width="53.333" height="16.618"/>
		<path fill="#FFFFFF" d="M33.587,6.835c0.345-0.154,0.944,2.315,0.983,3.296c0.173,4.107-3.085,7.23-6.884,7.23h-0.019h-0.019
			c-3.796,0-7.056-3.123-6.884-7.23c0.041-0.982,0.636-3.451,0.985-3.296c0.173,5.186,3.046,6.961,5.899,6.961h0.019h0.019
			C30.541,13.797,33.412,12.022,33.587,6.835z"/>
		<path fill-rule="evenodd" clip-rule="evenodd" fill="#003E7E" d="M26.453,52.78c0-0.445,0.078-0.461-0.328-0.461
			c-0.078,0.017-0.174,0.017-0.269,0.017c-0.347,0-0.655-0.133-0.927-0.402c-0.27-0.27-0.406-0.578-0.406-0.945
			c0-0.347,0.136-0.657,0.425-0.907c0.269-0.269,0.58-0.403,0.927-0.403c0.694,0,0.578,0.039,0.578-0.523
			c0-0.365,0.116-0.676,0.386-0.945c0.25-0.27,0.558-0.404,0.905-0.404c0.366,0,0.675,0.134,0.927,0.404
			c0.248,0.269,0.384,0.58,0.384,0.945c0,0.562-0.114,0.523,0.558,0.523c0.348,0,0.677,0.134,0.947,0.403
			c0.269,0.25,0.403,0.561,0.403,0.907c0,0.368-0.134,0.676-0.403,0.945c-0.269,0.269-0.579,0.402-0.927,0.402
			c-0.076,0-0.173,0-0.248-0.017c-0.407,0-0.329,0.017-0.329,0.461v1.216h1.408c0.444,0,0.461,0.078,0.461-0.33
			c0-0.078-0.018-0.155-0.018-0.252c0-0.347,0.134-0.652,0.405-0.923c0.269-0.27,0.578-0.404,0.942-0.404
			c0.347,0,0.657,0.134,0.927,0.404c0.27,0.271,0.405,0.6,0.405,0.945c0,0.694-0.058,0.56,0.5,0.56c0.367,0,0.675,0.134,0.945,0.382
			c0.272,0.274,0.405,0.582,0.405,0.929c0,0.366-0.133,0.674-0.405,0.926c-0.27,0.269-0.578,0.404-0.945,0.404
			c-0.558,0-0.5-0.135-0.5,0.557c0,0.349-0.136,0.659-0.405,0.949c-0.269,0.269-0.58,0.402-0.927,0.402
			c-0.364,0-0.673-0.133-0.942-0.402c-0.272-0.271-0.405-0.582-0.405-0.931c0-0.094,0.018-0.192,0.018-0.268
			c0-0.404-0.018-0.327-0.461-0.308h-1.408v3.837c0,2.658-0.694,6.73-1.311,6.673c-0.597,0.057-1.292-4.015-1.292-6.693v-3.817
			h-1.407c-0.464-0.019-0.483-0.097-0.483,0.308c0.019,0.076,0.019,0.173,0.019,0.268c0,0.349-0.134,0.66-0.386,0.931
			c-0.267,0.269-0.597,0.402-0.963,0.402c-0.328,0-0.634-0.133-0.906-0.402c-0.269-0.29-0.405-0.6-0.405-0.949
			c0-0.692,0.058-0.557-0.522-0.557c-0.345,0-0.675-0.135-0.942-0.404c-0.25-0.252-0.388-0.56-0.388-0.926
			c0-0.347,0.138-0.655,0.388-0.929c0.267-0.248,0.597-0.382,0.942-0.382c0.58,0,0.522,0.134,0.522-0.56
			c0-0.345,0.136-0.674,0.405-0.945c0.272-0.27,0.578-0.404,0.906-0.404c0.366,0,0.696,0.134,0.963,0.404
			c0.252,0.271,0.386,0.577,0.386,0.923c0,0.097,0,0.175-0.019,0.252c0,0.407,0.019,0.33,0.483,0.33h1.407V52.78z"/>
		<path fill="#E31837" d="M47.622,26.503l-0.095-0.946c-0.078-0.655-0.714-0.559-0.194-1.756c0.116-0.269,0.211-0.539,0.194-0.655
			c-0.019-1.658-1.447-0.655-0.655-0.481c-0.078,0.095,0.076,0.269-0.309,0.289c-0.329,0-0.58,0.347-0.674,0.539
			c-0.58,1.949-1.042,0.155-2.085,0.405c0,0-1.02-0.25-0.597-0.539c0,0,0.619-0.655-0.095-0.655c0,0-1.157-0.174-0.869,1.155
			c1.351,1.561-0.5,0.926-1.386,0.348c0,0-2.218-1.137-2.74-0.076c-0.114,0.231-0.308,1.252,0.58,0.617c0,0,0.674-0.502,1.136,0.192
			c0.136,0.21,0.348,0.731-0.578,0.712c-0.733,0-2.507,1.214-2.93,1.467c-1.196,0.848-2.777,1.273-3.74-0.194
			c0.655-0.809,0.867-1.291,0.712-2.316c-0.076-0.595-0.057-0.942,0.696-0.825c0,0,0.231-0.927-1.233-0.733
			c0,0,0.037-1.352-0.946-1.601c-0.194-0.039-0.522-0.174-0.811-0.135c-0.287,0.057-0.558,0.5-0.114,0.676
			c0.636,0.269,0.675,0.519,0.442,0.905c-1.388-1.775-3.932-0.887-3.971-1.177c-0.752-0.251,0.308-0.676-0.097-0.906
			c-0.79-0.444-1.369,0.849-0.617,1.427c0.161,0.12,0.464,0.268,0.774,0.426c0.017,0.188,0.159,0.418,0.7,0.391
			c0.248,0.167,0.386,0.328,0.242,0.456c-0.251,0.231-0.848-0.019-0.964-0.558c-0.039-0.174-0.405-0.155-0.461,0.058
			c-0.155,0.636,0.211,1.136,0.634,1.311c0.715,0.286,1.371,0.057,1.253,1.002c-0.209,1.446,1.023,2.737,2.584,2.68
			c0-0.135,1.833,1.968,4.474,1.116c0.867-0.269,1.658-0.808,2.488-1.214c0,0,1.447-0.772,1.87-0.423
			c0.155,0.135-0.115,0.327-0.27,0.423c-0.597,0.308-0.811,0.908-1.561,0.886c-0.059,0-0.252-0.016-0.291-0.288
			c-0.019-0.174-0.711,0.329-0.134,0.694c0.328,0.214,1.292,0.58,2.525,0c0,0,1.563-0.925,1.949-0.868l0.133,0.947
			c0,0,0.328,0.694,1.042,0.519c0,0,0.617-0.155,0.56-0.677c-0.194-0.153-0.366,0.174-0.578,0.116c0,0-0.368-0.386,0.52-0.481
			c0,0,1.408,0.02,1.6-0.309c0.983-0.463,1.811,4.184-2.564,4.492c-2.122,0.155-3.376-1.601-5.939-0.848
			c-0.289,0.098-0.444,0.078-0.809-0.078c-0.888-0.347-3.684-0.578-5.207-0.21c-1.968,0.48-3.973,1.523-4.203,1.021
			c0,0,0.039-0.503,0.674-0.926c0,0,0.56-0.927-0.076-0.927c0,0-0.328,0.137-0.521,0.406c0,0-1.214-0.367-0.425-0.79
			c0,0,1.252,0.192,1.252-1.041c-0.403-0.619-1.078,0.558-0.964-0.984c0,0-0.714-0.366,0-1.043l0.617-0.597
			c0,0-0.037-0.886-0.328-0.886c-0.425-0.019-0.27,0.211-0.367,0.269c-0.211,0.097-0.192-0.039-0.231-0.155
			c-0.019-0.095-0.076-0.347-0.347-0.887l0.289-0.847c0,0,0.175-0.444,0.058-0.772c-0.173-0.405-0.5-0.25-0.5,0l-0.136,0.328
			c0.039-0.039-0.828-1.33-1.08-1.426c0,0-0.039-0.659-0.328-0.659c0,0-0.925-0.267-1.58,0.581c-1.022-0.155-3.51-1.042-4.068,0.289
			c-0.405,0.946-1.369,0.81-1.927,0.907c0,0-0.136,1.928,0.383,2.409c0,0,0.425,0.369,0.986-0.056c0,0,1.561-0.269,0.847,0.711
			l-1.639,0.097c0,0-0.328-0.192-1.177-0.056c0,0-0.425,0.423-2.314,0.153c0,0,0.194-0.809-0.422-0.809c0,0-0.56,0.289-0.657,1.659
			c0,0,0.192,1.078,1.89,0.655l0.653-0.231l0.657,0.037c0,0,0.617-0.098,1.042-0.461l1.733-0.098l-0.134,0.231
			c0,0-1.427-0.231-0.714,1.311l-0.384,0.06c-0.541,0-1.159,1.02-1.544,0.845l-0.097-0.75c0,0-0.944,0.078-0.944,0.83l0.384,0.847
			c-1.542-0.386-3.064-1.175-3.546-2.121c-0.211-0.406-0.5-0.347-0.925-0.522c0,0-0.616-0.286-0.039-1.444
			c0.097-0.192,0.869-1.33,0.039-1.987c-0.578-0.673-0.83-1.234-1.794-1.021c-1.194,0.269-0.134,0.521,0.368,0.617
			c0,0,0.423,0.155-0.079,0.481c0,0-1.078-0.212-0.983,0.464c0,0,0.597,1.368,0.328,1.368l-0.328-0.194
			c0.231-0.886-0.597-1.503-1.503-1.866c-0.868-0.331-1.735,0.114-2.082,1.233c0,0,0,0.423,0.558,0c0,0,0.559-0.771,0.79-0.058
			c0,0-0.037,0.058-0.076,0.116c-0.155,0.231-0.309,0.944,0.136,1.136l-0.039,0.174c-0.231-0.116-1.293,0.018-1.929,1.234
			c-0.193,0.366-0.367,1.735,0.366,1.871c0,0,0.252,0.289,0.155-0.983c0,0,0.039-0.657,0.366-0.039c0,0,0.483,0.77,1.158,0.192
			c0.558-0.483,1.019,0.541,0.597,0.636c-0.56,0.116-0.368,0.619-0.194,0.811l0.425,0.386c0.136,0.211,0.039,0.539-0.886,0.076
			c0,0-0.481-0.192-0.445,0.31c0.039,0.5,0.637,0.441,0.945,0.557c0.945,0.367,1.85,0.115,2.218-0.541
			c0.134-0.249,0-0.635,0.056-0.964l0.233,0.502c0,0,0.423,1.753,2.353,2.12l0.037,0.33l-0.943-0.039c0,0-0.424,0.423,0.153,0.52
			l0.598,0.269c0,0,0.155,0.427,0.849,0.194c0,0,0.906-0.098,1.233,0.404c0,0,0.502,0.461-0.616,0.714c0,0-0.386,0-0.425-0.579
			c0,0-0.386-0.404-0.789,0.388c0,0,0,1.117,1.83,1.214c0,0,0.888-0.136,1.119-0.619c0,0,0.424,0.153,0.095,1.041l-0.79,0.713
			l-0.578-0.288c0,0-0.56-0.329-0.463,0.713c-0.214,1.482,2.352,0.885,3.007-0.521h0.194c0.113,0.406-0.56,2.369-1.504,2.717
			c0,0-1.466,0.907-1.658,1.562l-0.367-0.094c0,0-0.136-1.178-0.558-1.313l-0.291,0.076c0,0-0.328-0.499-0.714-0.174
			c0,0-0.27,0.021-0.595-0.192c-0.233-0.134-1.293-0.289-1.835,0.714c0,0-0.153,0.366,0.502,0.231l0.617-0.098l-0.039,0.461
			c0,0,0,0.62,0.927,1.083v0.386c0,0-0.558-0.521-1.35-0.616c0,0-0.944,0.192-1.274,1.465c0,0-0.384,0.52-0.231,0.887
			c0,0,0.328,0.48,0.424-0.194l0.328-0.367l0.174-0.055c-0.155,0.672,0.269,1.366,1.039,0.943l0.386-0.233l0.174,0.1
			c-0.636,0.556-0.25,1.114-0.694,1.828c0,0-0.233,1.274,1.08,1.699c0,0,0.231-0.388-0.097-0.619l-0.231-0.231
			c0,0-0.233-0.559,0.461-0.289c0,0,0.753,0.945,1.274-0.52c0,0,0.231-0.366,0.423-0.174c0,0,0.425,0.655,0.619-0.386
			c0.192-0.655,0.636-1.116,1.097-0.289c0.27,0.483,0.617-0.617,0.733,0.289c0.019,0.231,0.752,0.752,1.544-1.176
			c0,0,0.711-1.021-0.56-1.407c0.328-0.5,0.714-1.176,1.369-1.176l-0.328,0.521c0,0-0.289,0.425,0.655,0.231
			c0,0,0.617-0.52,1.214-1.7c0,0,0.328-0.788,1.042-0.228c0,0,0.597,0.983,0.985,0c-0.424-2.235,0.656-1.89,2.736-2.487
			c0,0,4.879-1.097,6.537-2.525c2.412-1.465,1.621,0.214,2.373-0.633c0.519-0.347,0.731-0.214,0.461,0.325l-1.311,0.675
			c0,0-1.544,0.424-2.816,3.141c0,0-0.522,0.194-0.751-0.194c0,0-0.329-0.461-0.329,0.388c0,0.231,0.212,0.578,0.541,0.676
			c0.289,0.094,1.116-0.119,0.597,0.461c-0.442,0.5-0.752,0.463-1.022-0.039c-0.308-0.598-0.424-2.351-1.91-1.814
			c-1.658,0.619-1.542,1.777-0.306,0.966c0.116-0.078,0.153,0.019,0.134,0.154c0,0.096-0.308,0.096-0.386,0.212
			c-0.095,0.112,0.039,0.347-0.095,0.329c-1.061-0.116-2.797,1.039-2.566,2.196c0,0,0.27,0.986,0.753,0.655
			c0,0,0.425-0.345-0.058-0.519c0,0-0.097-0.502,0.328-0.502c0,0,0.848,0.328,0.578,1.081c-0.289,0.463-0.634,1.059-0.617,1.445
			c0.078,0.792,0.849,1.042,0.849-0.135c0,0,0.134-0.463,0.654,0.194c0.444,0.656,0.946,0.115,1.427-0.194
			c0.272-0.176,1.061-0.212,1.235-0.751c0.076-0.233,0.194-0.212,0.503,0.328c0.384,0.673,0.634,0.75-0.309,0.713
			c0,0-0.483,0.501-0.155,0.559c0.656,0.114,1.484,0.23,2.178-0.733c0.328-0.463,0.771-0.753,0.674-1.195
			c-0.114-0.523,0.231-0.618,1.005-0.771c1.022-0.214,2.369-0.888,3.258-2.044c0,0,0.789-1.002-0.983-1.602
			c0,0-0.289-0.481,0.366-0.944c0.598-0.363,0.906-0.768,1.369-1.214c0.405,0.984,0.25,2.603,1.503,2.911l1.505,0.522
			c0,0,0.364,0.557-0.136,0.594c-0.347,0.041-0.598,0.814,0.233,0.582c0.192-0.059,0.403-0.079,0.617-0.059
			c0.095,0,0.095,0,0.192-0.057c0.097-0.078,0.231-0.233,0.27-0.466c0.058-0.325,0.174-0.788,0.657-0.576
			c0.209,0.098,0.481,0.059,0.711-0.018l0.502,0.692c0,0,0.809,1.177-0.174,0.849c0,0-0.328-0.653-1.08-0.328
			c0,0-1.561,0.155-1.6,1.581c-0.019,0.58,0.386,0.906,0.522,0.057c0.039-0.269,0.405-0.405,0.5-0.036
			c0.078,0.655-0.231,1.349-0.423,1.967c0,0-0.328,1.233,0.481,1.829c0,0,0.424,0.386,0.424-0.269c0,0-0.328-0.886-0.153-1.041
			l0.248,0.059c0,0,0.888,0.366,1.024-0.619c0.154-0.152,0.25-0.134,0.328,0.041c0.075,1.138-0.155,2.699,1.504,2.313
			c0.462-0.098,0.559-0.425,0.385-0.523c-0.134-0.055-0.269-0.016-0.385-0.055c-0.405-0.116-0.465-0.598,0.096-0.598
			c0.211,0,0.75-0.078,0.711-0.849c-0.037-0.27,0.039-2.027,0.696-1.272c0,0,0.52,0.75,0.673-0.194c0,0,0.504-0.23,0.329,0.325
			c-0.945,0.737,1.041,1.758,0.675-1.31c-0.039-0.381-0.155-0.614-0.25-0.77c-0.713-1.059-1.447,0.597-1.235-1.022
			c0.174-1.272-0.675-1.522-0.79-3.374c-0.039-0.461-0.252-1.616-1.699-1.173c-0.211,0.057-0.27,0.424-0.539,0.326
			c-0.213-0.078-0.25-0.133-0.483-0.171c-0.25-0.02-0.52-0.078-0.792-0.385c-0.384-0.386-0.345-0.655-0.519-1.121
			c-0.192-0.479-0.656-1.311-1.85-2.622c0.037-0.713,2.755-0.25,2.544,1.082c0,0-0.752,1.715,0,2.044c0,0,0.367,0.287,0.328-0.235
			c0,0-0.056-0.383,0.464-0.556c0,0,0.886-0.098,0.886-0.81l-0.056-1.197C47.43,33.654,48.877,31.227,47.622,26.503z"/>
		<path fill="#FFFFFF" d="M20.033,23.743c0,0,0.539,0.058,0.75-0.097c0,0,0.541,0.484-0.269,0.792
			C20.513,24.438,19.588,24.379,20.033,23.743z"/>
	</g>
	<g>
		<path fill="#003E7E" d="M61.535,16.963c0-0.688-0.08-4.445-0.132-4.842c-0.08-0.635-0.423-0.741-0.873-0.741h-1.323
			c-0.132,0-0.211-0.026-0.211-0.185v-0.767c0-0.106,0.079-0.132,0.185-0.132c0.344,0,1.508,0.079,4.154,0.079
			c0.688,0,3.333-0.079,3.942-0.079c3.598,0,6.456,0.317,8.969,2.408c1.747,1.455,2.963,3.651,2.963,6.72
			c0,3.043-0.873,5.054-2.619,6.959c-2.567,2.778-7.091,2.805-8.758,2.805c-0.424,0-3.546-0.08-5.001-0.08
			c-2.302,0-3.36,0.08-3.73,0.08c-0.132,0-0.186-0.053-0.186-0.238v-0.688c0-0.106,0.08-0.159,0.212-0.159h1.376
			c0.502,0,0.793-0.212,0.847-0.635c0.079-0.556,0.185-6.509,0.185-8.52V16.963z M65.503,19.529c0,0.344,0.026,4.842,0.053,6.482
			c0,0.529,0.106,0.953,0.45,1.455c0.317,0.477,1.217,0.635,2.117,0.635c1.534,0,3.572-0.768,4.948-2.593
			c1.058-1.402,1.878-3.572,1.878-6.032c0-2.17-0.899-4.392-2.143-5.768c-1.402-1.561-3.731-2.408-5.266-2.408
			c-0.741,0-1.138,0.026-1.481,0.211c-0.397,0.186-0.503,0.609-0.529,1.138c-0.026,1.111-0.026,4.578-0.026,5.001V19.529z"/>
		<path fill="#003E7E" d="M90.376,19.679h-0.111l-3.52,9.336c-0.074,0.204-0.167,0.463-0.463,0.463
			c-0.204,0-0.315-0.148-0.389-0.371l-4.168-11.744c-0.185-0.519-0.519-0.667-0.759-0.667h-0.463c-0.093,0-0.111-0.074-0.111-0.148
			v-0.481c0-0.093,0.018-0.13,0.148-0.13c0.148,0,0.723,0.056,2.63,0.056c1.334,0,2.093-0.056,2.279-0.056
			c0.129,0,0.148,0.056,0.148,0.148v0.463c0,0.093-0.019,0.148-0.148,0.148h-0.408c-0.296,0-0.482,0.259-0.371,0.63l2.538,8.076
			h0.111c0.222-0.629,2.445-6.521,2.445-7.187c0-0.463-0.185-0.945-0.352-1.167c-0.167-0.223-0.407-0.352-0.556-0.352h-0.371
			c-0.092,0-0.111-0.037-0.111-0.148v-0.481c0-0.074,0.019-0.13,0.129-0.13c0.167,0,0.815,0.056,2.445,0.056
			c1.556,0,2.26-0.056,2.445-0.056c0.111,0,0.129,0.056,0.129,0.167v0.463c0,0.074-0.019,0.13-0.129,0.13H92.84
			c-0.296,0-0.463,0.407-0.371,0.722l2.556,7.984h0.111c0.908-2.519,2.519-7.224,2.519-8.225c0-0.204-0.241-0.481-0.593-0.481
			h-0.537c-0.111,0-0.129-0.056-0.129-0.167v-0.463c0-0.074,0.018-0.13,0.148-0.13c0.185,0,0.833,0.056,1.982,0.056
			c1.038,0,1.575-0.056,1.723-0.056c0.111,0,0.129,0.037,0.129,0.167v0.463c0,0.074,0,0.13-0.129,0.13h-0.352
			c-0.315,0-0.686,0.204-0.871,0.667c-0.223,0.593-3.946,10.651-4.316,11.541c-0.092,0.222-0.222,0.574-0.556,0.574
			c-0.259,0-0.371-0.241-0.463-0.5L90.376,19.679z"/>
		<path fill="#003E7E" d="M102.47,21.346c0-0.444-0.056-3.779-0.074-4.02c-0.037-0.445-0.222-0.63-0.611-0.63h-0.889
			c-0.093,0-0.148-0.037-0.148-0.111v-0.537c0-0.074,0.056-0.111,0.13-0.111c0.222,0,1.167,0.056,2.982,0.056
			c1.89,0,2.482-0.056,2.742-0.056c0.092,0,0.129,0.056,0.129,0.167v0.463c0,0.093-0.056,0.13-0.148,0.13h-0.537
			c-0.463,0-0.741,0.148-0.741,0.481c0,0.186-0.056,4.279-0.056,4.501v1.426c0,0.186,0.056,4.464,0.056,4.631
			c0,0.574,0.278,0.667,0.63,0.667h0.759c0.093,0,0.148,0.037,0.148,0.13v0.519c0,0.074-0.056,0.111-0.167,0.111
			c-0.222,0-0.963-0.056-2.723-0.056c-1.945,0-2.742,0.056-2.945,0.056c-0.093,0-0.148-0.037-0.148-0.148v-0.5
			c0-0.074,0.056-0.111,0.148-0.111h0.537c0.371,0,0.759-0.055,0.833-0.5c0.037-0.278,0.093-4.279,0.093-5.261V21.346z"/>
		<path fill="#003E7E" d="M121.363,27.311c0,0.259,0.074,0.445,0.074,0.593c0,0.148-0.111,0.222-0.296,0.296
			c-1.5,0.759-3.075,1.186-5.428,1.186c-1.927,0-4.094-0.611-5.372-2.112c-1.13-1.278-1.704-2.853-1.704-5.094
			c0-1.686,0.796-3.482,2.149-4.649c1.352-1.186,3.019-1.815,5.242-1.815c1.871,0,3.26,0.519,3.872,0.908
			c0.222,0.13,0.352,0.093,0.463-0.056l0.186-0.296c0.092-0.129,0.129-0.185,0.241-0.185c0.204,0,0.259,0.13,0.259,0.333
			l0.278,3.816c0.019,0.222,0,0.315-0.074,0.333l-0.519,0.111c-0.111,0.019-0.167-0.019-0.222-0.185
			c-0.296-0.908-0.889-2.093-1.686-2.815c-0.722-0.686-1.667-1.149-2.927-1.149c-1,0-1.926,0.315-2.797,1.39
			c-0.852,1.019-1.482,2.556-1.482,4.224c0,2.186,0.611,4.094,1.611,5.094c0.871,0.871,1.575,1.26,2.834,1.26
			c0.963,0,1.482-0.074,2.093-0.371c0.389-0.185,0.426-0.778,0.426-1.741v-1.333c0-0.667-0.185-0.852-0.648-0.852h-0.778
			c-0.111,0-0.13-0.074-0.13-0.167v-0.463c0-0.074,0.019-0.13,0.13-0.13c0.167,0,1.074,0.056,2.742,0.056
			c1.704,0,2.39-0.056,2.538-0.056c0.148,0,0.167,0.056,0.167,0.148v0.463c0,0.111-0.019,0.148-0.13,0.148h-0.537
			c-0.333,0-0.574,0.129-0.574,0.667V27.311z"/>
		<path fill="#003E7E" d="M125.455,21.809c0-1.149-0.037-3.649-0.037-3.909c0-0.945-0.13-1.204-0.63-1.204h-0.76
			c-0.204,0-0.222-0.074-0.222-0.186v-0.352c0-0.111,0.019-0.223,0.204-0.223c0.315,0,0.908,0.056,2.76,0.056
			c1.815,0,2.482-0.056,2.797-0.056c0.204,0,0.222,0.056,0.222,0.204v0.389c0,0.111-0.019,0.167-0.222,0.167h-0.445
			c-0.667,0-0.759,0.315-0.815,1.019c-0.019,0.26-0.111,2.705-0.111,3.742v0.278c0,0.093,0.056,0.148,0.296,0.148h5.539
			c0.278,0,0.37-0.037,0.37-0.241v-0.185c0-1.056-0.129-3.631-0.129-3.816c-0.019-0.593-0.093-0.945-0.426-0.945h-0.759
			c-0.167,0-0.186-0.056-0.186-0.186v-0.407c0-0.111,0.019-0.167,0.167-0.167c0.333,0,1.13,0.056,2.705,0.056
			c1.538,0,2.315-0.056,2.556-0.056c0.222,0,0.241,0.056,0.241,0.204v0.352c0,0.129-0.019,0.204-0.241,0.204h-0.556
			c-0.537,0-0.593,0.315-0.593,0.945c0,0.259-0.037,3.39-0.037,4.075v0.63c0,0.593,0.037,4.112,0.056,5.131
			c0,0.667,0.185,0.926,0.741,0.926h0.63c0.148,0,0.167,0.056,0.167,0.167v0.407c0,0.093-0.019,0.186-0.204,0.186
			c-0.296,0-0.926-0.056-2.593-0.056c-1.889,0-2.482,0.056-2.908,0.056c-0.204,0-0.241-0.093-0.241-0.186V28.57
			c0-0.111,0.019-0.167,0.204-0.167h0.815c0.445,0,0.5-0.352,0.519-0.815c0.037-0.871,0.074-3.853,0.074-4.446v-0.222
			c0-0.204-0.185-0.222-0.407-0.222h-5.539c-0.204,0-0.259,0.055-0.259,0.222v0.278c0,0.463,0.074,3.316,0.13,4.575
			c0.019,0.445,0.204,0.63,0.611,0.63h0.519c0.148,0,0.167,0.037,0.167,0.148v0.444c0,0.111-0.019,0.167-0.167,0.167
			c-0.333,0-0.982-0.056-2.538-0.056c-1.964,0-2.52,0.056-2.89,0.056c-0.167,0-0.185-0.056-0.185-0.204V28.57
			c0-0.13,0.019-0.167,0.185-0.167h0.853c0.463,0,0.519-0.444,0.519-0.852c0.019-0.871,0.056-4.464,0.056-4.946V21.809z"/>
		<path fill="#003E7E" d="M144.866,16.844h-0.648c-0.593,0-1.704,0.019-2.482,0.296c-0.408,0.296-1.223,1.427-1.686,2.093
			c-0.056,0.093-0.111,0.148-0.185,0.13l-0.408-0.148c-0.074-0.019-0.092-0.111-0.074-0.167c0.204-0.778,0.815-3.223,0.889-3.594
			c0.056-0.241,0.148-0.315,0.278-0.315c0.129,0,0.185,0.074,0.352,0.278c0.204,0.259,0.556,0.426,1.223,0.463
			c0.982,0.055,1.76,0.111,3.687,0.111h1.074c2.019,0,2.816-0.074,3.594-0.111c0.408-0.019,1.13-0.241,1.353-0.463
			c0.185-0.185,0.296-0.278,0.426-0.278s0.185,0.074,0.222,0.296l0.556,3.687c0.019,0.074-0.018,0.148-0.074,0.167l-0.389,0.148
			c-0.074,0.019-0.111-0.037-0.185-0.167c-0.408-0.667-1.13-1.63-1.593-2.075c-0.463-0.278-2.112-0.352-2.538-0.352h-0.611v5.094
			c0,0.259,0,5.446,0.019,5.724c0.037,0.463,0.185,0.741,0.629,0.741h0.834c0.167,0,0.185,0.056,0.185,0.186v0.426
			c0,0.093-0.019,0.148-0.185,0.148c-0.186,0-0.778-0.056-2.834-0.056c-1.963,0-2.742,0.056-3.001,0.056
			c-0.148,0-0.167-0.074-0.167-0.222v-0.352c0-0.13,0.019-0.186,0.129-0.186h0.945c0.371,0,0.593-0.222,0.63-0.556
			c0.037-0.389,0.037-6.076,0.037-6.428V16.844z"/>
		<path fill="#003E7E" d="M161.27,23.26c0.105,0,0.185,0.026,0.185,0.211c0.053,0.82,0.423,1.958,1.058,2.99
			c0.768,1.217,2.064,1.799,3.334,1.799s3.308-0.847,3.308-2.937c0-2.196-0.423-2.831-3.863-4.127
			c-0.793-0.291-2.487-1.138-3.836-2.302c-0.926-0.82-1.323-2.223-1.323-3.757c0-1.614,0.396-2.699,1.984-3.89
			c1.19-0.899,2.196-1.27,3.81-1.27c1.931,0,2.963,0.318,3.519,0.529c0.265,0.106,0.45,0.053,0.608-0.132l0.344-0.344
			c0.106-0.106,0.238-0.159,0.397-0.159c0.185,0,0.238,0.291,0.265,0.45l0.423,4.524c0,0.106-0.053,0.132-0.132,0.159l-0.582,0.185
			c-0.132,0.053-0.265,0-0.344-0.185c-0.292-0.767-0.741-1.799-1.641-2.751c-0.662-0.741-1.455-1.111-2.646-1.111
			c-1.984,0-2.805,1.72-2.805,2.408c0,0.979,0.026,1.772,0.688,2.434c0.688,0.714,2.196,1.35,3.493,1.72
			c1.27,0.371,2.302,1.032,3.387,2.011c1.032,0.926,1.455,2.09,1.455,3.942c0,3.228-2.302,5.848-5.794,5.848
			c-2.381,0-3.625-0.397-4.736-1.138c-0.318-0.212-0.477-0.291-0.609-0.291c-0.159,0-0.265,0.185-0.423,0.45
			c-0.159,0.291-0.291,0.317-0.476,0.317c-0.291,0-0.397-0.132-0.371-0.423l0.423-5.027c0.027-0.186,0.106-0.186,0.212-0.186
			L161.27,23.26z"/>
		<path fill="#003E7E" d="M176.643,27.681c-1.371-1.223-2.019-3.353-2.019-4.946c0-1.908,0.611-3.631,1.908-5.021
			c1.056-1.13,2.594-2,4.891-2c1.686,0,3.075,0.426,3.723,0.778c0.259,0.129,0.352,0.111,0.389-0.019l0.148-0.463
			c0.037-0.111,0.074-0.111,0.352-0.111s0.315,0.037,0.315,0.296c0,0.352,0.333,3.501,0.426,4.057c0.019,0.129,0,0.222-0.093,0.241
			l-0.407,0.111c-0.093,0.037-0.167-0.037-0.223-0.204c-0.204-0.741-0.704-1.686-1.482-2.482c-0.796-0.778-1.778-1.39-3.186-1.39
			c-2.705,0-3.853,2.464-3.834,5.206c0,1.167,0.333,3.445,1.648,4.835c1.204,1.241,2.26,1.389,2.89,1.389
			c2.111,0,3.686-0.963,4.372-1.982c0.093-0.148,0.185-0.223,0.278-0.148l0.315,0.278c0.056,0.037,0.074,0.111,0,0.222
			c-1.075,1.556-2.871,3.057-5.483,3.057C179.106,29.385,177.81,28.718,176.643,27.681z"/>
		<path fill="#003E7E" d="M189.812,21.809c0-1.149-0.037-3.649-0.037-3.909c0-0.945-0.13-1.204-0.63-1.204h-0.76
			c-0.204,0-0.222-0.074-0.222-0.186v-0.352c0-0.111,0.019-0.223,0.204-0.223c0.315,0,0.908,0.056,2.76,0.056
			c1.815,0,2.482-0.056,2.797-0.056c0.204,0,0.222,0.056,0.222,0.204v0.389c0,0.111-0.019,0.167-0.222,0.167h-0.445
			c-0.667,0-0.759,0.315-0.815,1.019c-0.019,0.26-0.111,2.705-0.111,3.742v0.278c0,0.093,0.056,0.148,0.296,0.148h5.539
			c0.278,0,0.37-0.037,0.37-0.241v-0.185c0-1.056-0.129-3.631-0.129-3.816c-0.019-0.593-0.093-0.945-0.426-0.945h-0.759
			c-0.167,0-0.186-0.056-0.186-0.186v-0.407c0-0.111,0.019-0.167,0.167-0.167c0.333,0,1.13,0.056,2.705,0.056
			c1.538,0,2.315-0.056,2.556-0.056c0.222,0,0.241,0.056,0.241,0.204v0.352c0,0.129-0.019,0.204-0.241,0.204h-0.556
			c-0.537,0-0.593,0.315-0.593,0.945c0,0.259-0.037,3.39-0.037,4.075v0.63c0,0.593,0.037,4.112,0.056,5.131
			c0,0.667,0.185,0.926,0.741,0.926h0.63c0.148,0,0.167,0.056,0.167,0.167v0.407c0,0.093-0.019,0.186-0.204,0.186
			c-0.296,0-0.926-0.056-2.593-0.056c-1.889,0-2.482,0.056-2.908,0.056c-0.204,0-0.241-0.093-0.241-0.186V28.57
			c0-0.111,0.019-0.167,0.204-0.167h0.815c0.445,0,0.5-0.352,0.519-0.815c0.037-0.871,0.074-3.853,0.074-4.446v-0.222
			c0-0.204-0.185-0.222-0.407-0.222h-5.539c-0.204,0-0.259,0.055-0.259,0.222v0.278c0,0.463,0.074,3.316,0.13,4.575
			c0.019,0.445,0.204,0.63,0.611,0.63h0.519c0.148,0,0.167,0.037,0.167,0.148v0.444c0,0.111-0.019,0.167-0.167,0.167
			c-0.333,0-0.982-0.056-2.538-0.056c-1.964,0-2.52,0.056-2.89,0.056c-0.167,0-0.185-0.056-0.185-0.204V28.57
			c0-0.13,0.019-0.167,0.185-0.167h0.853c0.463,0,0.519-0.444,0.519-0.852c0.019-0.871,0.056-4.464,0.056-4.946V21.809z"/>
		<path fill="#003E7E" d="M207.37,28.181c-1.315-0.796-2.723-2.797-2.723-5.501c0-1.13,0.296-2.89,1.723-4.613
			c1.63-1.982,3.723-2.353,5.391-2.353c1.538,0,2.964,0.241,4.52,1.463c1.408,1.111,2.538,2.982,2.538,5.539
			c0,1.352-0.426,2.76-1.389,4.057c-1.204,1.5-2.779,2.612-5.706,2.612C210.444,29.385,208.833,29.089,207.37,28.181z
			 M215.909,22.865c0-4.057-2.667-6.28-4.224-6.28c-0.371,0-1.297-0.092-2.427,1c-1.093,1.037-1.648,2.982-1.648,4.501
			c0,4.742,2.723,6.428,4.26,6.428C215.298,28.515,215.909,24.384,215.909,22.865z"/>
		<path fill="#003E7E" d="M223.613,28.181c-1.315-0.796-2.723-2.797-2.723-5.501c0-1.13,0.296-2.89,1.723-4.613
			c1.63-1.982,3.723-2.353,5.391-2.353c1.538,0,2.964,0.241,4.52,1.463c1.408,1.111,2.538,2.982,2.538,5.539
			c0,1.352-0.426,2.76-1.389,4.057c-1.204,1.5-2.779,2.612-5.706,2.612C226.687,29.385,225.076,29.089,223.613,28.181z
			 M232.152,22.865c0-4.057-2.667-6.28-4.224-6.28c-0.371,0-1.297-0.092-2.427,1c-1.093,1.037-1.648,2.982-1.648,4.501
			c0,4.742,2.723,6.428,4.26,6.428C231.541,28.515,232.152,24.384,232.152,22.865z"/>
		<path fill="#003E7E" d="M241.023,23.31c0,0.314,0,4.316,0.056,5.057h1.056c0.871,0,1.705,0,2.705-0.092
			c1-0.093,2.26-2.315,2.538-3.001c0.055-0.111,0.111-0.167,0.222-0.111l0.371,0.148c0.055,0.037,0.055,0.056,0.037,0.167
			c-0.056,0.13-0.797,3.187-0.908,3.687c-0.482-0.037-5.817-0.056-7.521-0.056c-1.834,0-2.501,0.056-2.742,0.056
			c-0.129,0-0.148-0.037-0.148-0.167v-0.463c0-0.093,0.019-0.13,0.129-0.13h0.574c0.686,0,0.797-0.259,0.797-0.463
			c0-0.352,0.055-4.964,0.055-6.095v-1.037c0-1.186-0.037-3.149-0.055-3.445c-0.037-0.482-0.13-0.667-0.556-0.667h-0.685
			c-0.111,0-0.13-0.093-0.13-0.186v-0.444c0-0.093,0.019-0.13,0.13-0.13c0.204,0,0.871,0.056,2.556,0.056
			c2.167,0,2.945-0.056,3.112-0.056c0.148,0,0.167,0.056,0.167,0.186v0.426c0,0.093-0.037,0.148-0.185,0.148h-0.871
			c-0.574,0-0.648,0.185-0.648,0.686c0,0.241-0.056,3.038-0.056,4.334V23.31z"/>
		<path fill="#003E7E" d="M260.745,20.826c0,0.45,0,6.165,0.079,7.223h1.508c1.244,0,2.434,0,3.863-0.132
			c1.429-0.132,3.228-3.308,3.625-4.287c0.08-0.159,0.159-0.238,0.317-0.159l0.529,0.212c0.08,0.053,0.08,0.079,0.053,0.238
			c-0.079,0.186-1.138,4.551-1.296,5.266c-0.688-0.053-8.308-0.08-10.742-0.08c-2.619,0-3.572,0.08-3.916,0.08
			c-0.185,0-0.211-0.053-0.211-0.238v-0.662c0-0.132,0.026-0.185,0.185-0.185h0.82c0.979,0,1.138-0.371,1.138-0.662
			c0-0.502,0.08-7.091,0.08-8.705v-1.481c0-1.693-0.053-4.498-0.08-4.921c-0.053-0.688-0.185-0.953-0.793-0.953h-0.979
			c-0.159,0-0.186-0.132-0.186-0.265v-0.635c0-0.132,0.026-0.185,0.186-0.185c0.291,0,1.243,0.079,3.651,0.079
			c3.096,0,4.207-0.079,4.445-0.079c0.211,0,0.238,0.079,0.238,0.265v0.608c0,0.132-0.053,0.211-0.265,0.211h-1.244
			c-0.82,0-0.926,0.265-0.926,0.979c0,0.344-0.079,4.339-0.079,6.191V20.826z"/>
		<path fill="#003E7E" d="M274.785,28.181c-1.315-0.796-2.723-2.797-2.723-5.501c0-1.13,0.296-2.89,1.723-4.613
			c1.63-1.982,3.723-2.353,5.39-2.353c1.538,0,2.964,0.241,4.521,1.463c1.407,1.111,2.537,2.982,2.537,5.539
			c0,1.352-0.426,2.76-1.389,4.057c-1.204,1.5-2.778,2.612-5.706,2.612C277.86,29.385,276.248,29.089,274.785,28.181z
			 M283.324,22.865c0-4.057-2.667-6.28-4.223-6.28c-0.371,0-1.297-0.092-2.427,1c-1.094,1.037-1.649,2.982-1.649,4.501
			c0,4.742,2.723,6.428,4.26,6.428C282.713,28.515,283.324,24.384,283.324,22.865z"/>
		<path fill="#003E7E" d="M299.363,23.717c0-1.648-0.019-2.556-0.055-3.482c-0.019-0.723-0.111-2.538-0.167-2.816
			c-0.111-0.463-0.556-0.722-0.982-0.722h-0.593c-0.092,0-0.11-0.056-0.11-0.167v-0.463c0-0.093,0.019-0.13,0.166-0.13
			c0.204,0,0.797,0.056,2.168,0.056c1.111,0,1.556-0.056,1.76-0.056c0.166,0,0.185,0.037,0.185,0.148v0.444
			c0,0.093-0.019,0.167-0.092,0.167h-0.52c-0.314,0-0.5,0.315-0.556,0.982c-0.129,1.241-0.426,5.427-0.426,7.873v3.167
			c0,0.278-0.019,0.611-0.277,0.611c-0.278,0-0.52-0.092-0.723-0.296c-0.315-0.296-1.223-1.278-2.334-2.593l-3.168-3.76
			c-0.314-0.371-2.871-3.557-3.297-4.168h-0.148v3.742c0,1.538,0.167,3.816,0.186,4.52c0.037,1.074,0.37,1.63,1.148,1.63h0.463
			c0.13,0,0.148,0.056,0.148,0.167v0.444c0,0.111-0.019,0.148-0.148,0.148c-0.186,0-1.297-0.056-2.167-0.056
			c-0.574,0-1.853,0.056-2.038,0.056c-0.074,0-0.093-0.037-0.093-0.167v-0.481c0-0.056,0.019-0.111,0.111-0.111h0.648
			c0.407,0,0.704-0.593,0.797-1.833c0.018-0.352,0.166-3.316,0.166-6.058v-1.667c0-1.093-0.667-2.13-1.593-2.149l-0.463-0.019
			c-0.093,0-0.111-0.074-0.111-0.13v-0.5c0-0.074,0.019-0.111,0.111-0.111s0.24,0.019,0.593,0.019
			c0.37,0.019,0.963,0.037,1.926,0.037c0.63,0,1.186-0.037,1.408-0.037c0.241,0,0.389,0.074,0.537,0.241l4.298,5.261l3.168,3.945
			h0.073V23.717z"/>
		<path fill="#003E7E" d="M304.438,20.605c0-0.482-0.056-3.112-0.093-3.39c-0.056-0.444-0.296-0.519-0.611-0.519h-0.926
			c-0.093,0-0.148-0.019-0.148-0.13v-0.537c0-0.074,0.056-0.093,0.13-0.093c0.241,0,1.056,0.056,2.908,0.056
			c0.481,0,2.334-0.056,2.76-0.056c2.52,0,4.521,0.223,6.28,1.686c1.223,1.019,2.074,2.556,2.074,4.705
			c0,2.13-0.611,3.538-1.834,4.872c-1.797,1.945-4.964,1.964-6.131,1.964c-0.297,0-2.482-0.056-3.501-0.056
			c-1.612,0-2.353,0.056-2.612,0.056c-0.093,0-0.13-0.037-0.13-0.167v-0.481c0-0.074,0.056-0.111,0.148-0.111h0.963
			c0.353,0,0.556-0.148,0.593-0.444c0.056-0.389,0.13-4.557,0.13-5.965V20.605z M307.217,22.402c0,0.241,0.018,3.39,0.036,4.538
			c0,0.371,0.074,0.667,0.315,1.019c0.223,0.333,0.852,0.444,1.481,0.444c1.075,0,2.501-0.537,3.465-1.815
			c0.74-0.981,1.314-2.5,1.314-4.223c0-1.519-0.63-3.075-1.5-4.039c-0.981-1.093-2.612-1.686-3.687-1.686
			c-0.519,0-0.797,0.019-1.037,0.148c-0.278,0.129-0.353,0.426-0.371,0.796c-0.018,0.778-0.018,3.205-0.018,3.501V22.402z"/>
		<path fill="#003E7E" d="M321.607,28.181c-1.315-0.796-2.724-2.797-2.724-5.501c0-1.13,0.297-2.89,1.724-4.613
			c1.63-1.982,3.723-2.353,5.39-2.353c1.538,0,2.964,0.241,4.521,1.463c1.407,1.111,2.537,2.982,2.537,5.539
			c0,1.352-0.426,2.76-1.389,4.057c-1.204,1.5-2.778,2.612-5.706,2.612C324.683,29.385,323.07,29.089,321.607,28.181z
			 M330.146,22.865c0-4.057-2.667-6.28-4.223-6.28c-0.371,0-1.297-0.092-2.427,1c-1.094,1.037-1.649,2.982-1.649,4.501
			c0,4.742,2.724,6.428,4.261,6.428C329.535,28.515,330.146,24.384,330.146,22.865z"/>
		<path fill="#003E7E" d="M346.186,23.717c0-1.648-0.019-2.556-0.055-3.482c-0.019-0.723-0.111-2.538-0.167-2.816
			c-0.111-0.463-0.556-0.722-0.982-0.722h-0.593c-0.092,0-0.11-0.056-0.11-0.167v-0.463c0-0.093,0.019-0.13,0.166-0.13
			c0.204,0,0.797,0.056,2.168,0.056c1.111,0,1.556-0.056,1.76-0.056c0.166,0,0.185,0.037,0.185,0.148v0.444
			c0,0.093-0.019,0.167-0.092,0.167h-0.52c-0.314,0-0.5,0.315-0.556,0.982c-0.129,1.241-0.426,5.427-0.426,7.873v3.167
			c0,0.278-0.019,0.611-0.277,0.611c-0.278,0-0.52-0.092-0.723-0.296c-0.315-0.296-1.223-1.278-2.334-2.593l-3.168-3.76
			c-0.314-0.371-2.871-3.557-3.297-4.168h-0.148v3.742c0,1.538,0.167,3.816,0.186,4.52c0.037,1.074,0.37,1.63,1.148,1.63h0.463
			c0.13,0,0.148,0.056,0.148,0.167v0.444c0,0.111-0.019,0.148-0.148,0.148c-0.186,0-1.297-0.056-2.167-0.056
			c-0.574,0-1.853,0.056-2.038,0.056c-0.074,0-0.093-0.037-0.093-0.167v-0.481c0-0.056,0.019-0.111,0.111-0.111h0.648
			c0.407,0,0.704-0.593,0.797-1.833c0.018-0.352,0.166-3.316,0.166-6.058v-1.667c0-1.093-0.667-2.13-1.593-2.149l-0.463-0.019
			c-0.093,0-0.111-0.074-0.111-0.13v-0.5c0-0.074,0.019-0.111,0.111-0.111s0.24,0.019,0.593,0.019
			c0.37,0.019,0.963,0.037,1.926,0.037c0.63,0,1.186-0.037,1.408-0.037c0.241,0,0.389,0.074,0.537,0.241l4.298,5.261l3.168,3.945
			h0.073V23.717z"/>
	</g>
</g>
</svg>
